<svg width="14" height="14" viewBox="0 0 14 14" fill="none" xmlns="http://www.w3.org/2000/svg">
<path fill-rule="evenodd" clip-rule="evenodd" d="M11.0175 3.94644L11.0084 3.95425L3.96163 11.001C3.83342 11.1283 3.66008 11.1997 3.47941 11.1997C3.29891 11.1997 3.12573 11.1284 2.99756 11.0013C2.87047 10.8732 2.79915 10.7 2.79915 10.5194C2.79915 10.3388 2.87092 10.1651 2.99818 10.0369L10.0446 2.9905L10.0524 2.98137C10.1138 2.90972 10.1893 2.85153 10.2742 2.81045C10.3591 2.76937 10.4516 2.74628 10.5459 2.74264C10.6401 2.739 10.7341 2.75488 10.822 2.78929C10.9098 2.8237 10.9896 2.8759 11.0563 2.9426C11.123 3.0093 11.1752 3.08907 11.2096 3.1769C11.244 3.26473 11.2599 3.35873 11.2562 3.45299C11.2526 3.54725 11.2295 3.63974 11.1884 3.72466C11.1473 3.80957 11.0891 3.88508 11.0175 3.94644ZM2.33203 4.0135C2.33203 3.68122 2.43056 3.35641 2.61516 3.08014C2.79976 2.80386 3.06214 2.58853 3.36912 2.46138C3.6761 2.33422 4.01389 2.30095 4.33978 2.36578C4.66567 2.4306 4.96502 2.59061 5.19997 2.82556C5.43492 3.06051 5.59493 3.35986 5.65975 3.68575C5.72457 4.01163 5.6913 4.34942 5.56415 4.6564C5.43699 4.96338 5.22166 5.22576 4.94539 5.41036C4.66911 5.59497 4.3443 5.6935 4.01203 5.6935C3.56647 5.6935 3.13915 5.5165 2.82409 5.20143C2.50903 4.88637 2.33203 4.45906 2.33203 4.0135ZM11.6654 9.98683C11.6654 10.3191 11.5668 10.6439 11.3822 10.9202C11.1976 11.1965 10.9353 11.4118 10.6283 11.5389C10.3213 11.6661 9.9835 11.6994 9.65761 11.6345C9.33172 11.5697 9.03238 11.4097 8.79743 11.1748C8.56247 10.9398 8.40247 10.6405 8.33764 10.3146C8.27282 9.98869 8.30609 9.6509 8.43325 9.34392C8.5604 9.03694 8.77573 8.77456 9.05201 8.58996C9.32828 8.40536 9.65309 8.30683 9.98536 8.30683C10.4309 8.30683 10.8582 8.48383 11.1733 8.79889C11.4884 9.11395 11.6654 9.54126 11.6654 9.98683Z" fill="#BCBCBC"/>
</svg>
