<svg width="56" height="32" viewBox="0 0 56 32" fill="none" xmlns="http://www.w3.org/2000/svg">
    <circle cx="40" cy="16" r="16" fill="#F0F0F0"/>
    <path fill-rule="evenodd" clip-rule="evenodd" d="M32.9568 20.6161C32.5461 20.4106 32.2339 20.0505 32.0888 19.6148C31.9436 19.1792 31.9775 18.7037 32.1828 18.293L35.2518 12.1575C35.3532 11.954 35.4937 11.7725 35.6654 11.6234C35.837 11.4743 36.0364 11.3605 36.2521 11.2886C36.4678 11.2167 36.6956 11.1881 36.9223 11.2044C37.1491 11.2207 37.3705 11.2815 37.5737 11.3835C37.9834 11.5896 38.2946 11.9499 38.4388 12.3852C38.5831 12.8206 38.5486 13.2954 38.343 13.7054L35.2775 19.8375C35.0729 20.2483 34.7135 20.5611 34.2783 20.7071C33.8431 20.8531 33.3678 20.8204 32.9568 20.6161ZM38.4365 20.6161C38.0258 20.4106 37.7136 20.0505 37.5685 19.6148C37.4233 19.1792 37.4571 18.7037 37.6625 18.293L40.7303 12.1575C40.8319 11.954 40.9726 11.7726 41.1444 11.6236C41.3162 11.4746 41.5157 11.3609 41.7314 11.289C41.9472 11.2171 42.175 11.1885 42.4018 11.2047C42.6286 11.2209 42.85 11.2816 43.0534 11.3835C43.2566 11.4851 43.4379 11.6258 43.5868 11.7975C43.7357 11.9692 43.8494 12.1685 43.9213 12.3841C43.9931 12.5997 44.0218 12.8274 44.0057 13.0541C43.9896 13.2808 43.929 13.5021 43.8273 13.7054L40.7595 19.8375C40.6582 20.0412 40.5177 20.223 40.3461 20.3724C40.1745 20.5218 39.9751 20.6359 39.7594 20.7082C39.5436 20.7805 39.3157 20.8096 39.0887 20.7938C38.8618 20.778 38.6401 20.7176 38.4365 20.6161ZM47.9587 18.3082C47.9587 19.5828 46.9254 20.6161 45.6508 20.6161C44.3762 20.6161 43.343 19.5828 43.343 18.3082C43.343 17.0336 44.3762 16.0004 45.6508 16.0004C46.9254 16.0004 47.9587 17.0336 47.9587 18.3082Z" fill="black"/>
    <circle cx="16" cy="16" r="16" fill="black"/>
    <path fill-rule="evenodd" clip-rule="evenodd" d="M8.95677 20.6161C8.54614 20.4106 8.23393 20.0505 8.08879 19.6148C7.94365 19.1792 7.97746 18.7037 8.1828 18.293L11.2518 12.1575C11.3532 11.954 11.4937 11.7725 11.6654 11.6234C11.837 11.4743 12.0364 11.3605 12.2521 11.2886C12.4678 11.2167 12.6956 11.1881 12.9223 11.2044C13.1491 11.2207 13.3705 11.2815 13.5737 11.3835C13.9834 11.5896 14.2946 11.9499 14.4388 12.3852C14.5831 12.8206 14.5486 13.2954 14.343 13.7054L11.2775 19.8375C11.0729 20.2483 10.7135 20.5611 10.2783 20.7071C9.84314 20.8531 9.36781 20.8204 8.95677 20.6161ZM14.4365 20.6161C14.0258 20.4106 13.7136 20.0505 13.5685 19.6148C13.4233 19.1792 13.4571 18.7037 13.6625 18.293L16.7303 12.1575C16.8319 11.954 16.9726 11.7726 17.1444 11.6236C17.3162 11.4746 17.5157 11.3609 17.7314 11.289C17.9472 11.2171 18.175 11.1885 18.4018 11.2047C18.6286 11.2209 18.85 11.2816 19.0534 11.3835C19.2566 11.4851 19.4379 11.6258 19.5868 11.7975C19.7357 11.9692 19.8494 12.1685 19.9213 12.3841C19.9931 12.5997 20.0218 12.8274 20.0057 13.0541C19.9896 13.2808 19.929 13.5021 19.8273 13.7054L16.7595 19.8375C16.6582 20.0412 16.5177 20.223 16.3461 20.3724C16.1745 20.5218 15.9751 20.6359 15.7594 20.7082C15.5436 20.7805 15.3157 20.8096 15.0887 20.7938C14.8618 20.778 14.6401 20.7176 14.4365 20.6161ZM23.9587 18.3082C23.9587 19.5828 22.9254 20.6161 21.6508 20.6161C20.3762 20.6161 19.343 19.5828 19.343 18.3082C19.343 17.0336 20.3762 16.0004 21.6508 16.0004C22.9254 16.0004 23.9587 17.0336 23.9587 18.3082Z" fill="white"/>
</svg>
