<svg width="12" height="12" viewBox="0 0 12 12" fill="none" xmlns="http://www.w3.org/2000/svg">
    <path d="M1.74107 1.76786C2.91965 0.58928 4.33928 0 6 0C7.66072 0 9.07589 0.584816 10.2455 1.75446C11.4152 2.92411 12 4.33928 12 6C12 7.66072 11.4152 9.07589 10.2455 10.2455C9.07589 11.4152 7.66072 12 6 12C4.33928 12 2.92411 11.4152 1.75446 10.2455C0.584816 9.07589 0 7.66072 0 6C0 4.33928 0.580351 2.92858 1.74107 1.76786ZM6.53571 8.75893C6.55357 8.52678 6.48661 8.33036 6.33482 8.16964C6.18304 8.00893 5.99107 7.92857 5.75893 7.92857C5.54464 7.92857 5.35714 8 5.19643 8.14286C5.03571 8.28572 4.95536 8.47321 4.95536 8.70536C4.95536 8.9375 5.02678 9.12946 5.16964 9.28125C5.3125 9.43304 5.49107 9.50893 5.70536 9.50893C5.9375 9.50893 6.13393 9.44197 6.29464 9.30804C6.45536 9.17411 6.53571 8.99107 6.53571 8.75893ZM7.84821 5.33036C8.0625 5.02678 8.16964 4.70536 8.16964 4.36607C8.16964 3.77679 7.94643 3.3125 7.5 2.97321C7.07143 2.65178 6.51786 2.49107 5.83929 2.49107C5.33928 2.49107 4.91964 2.60714 4.58036 2.83929C4.08036 3.17857 3.83036 3.78571 3.83036 4.66071H5.14286C5.14286 4.28571 5.17857 4.04464 5.25 3.9375C5.41072 3.66964 5.64286 3.53571 5.94643 3.53571C6.25 3.53571 6.47321 3.63393 6.61607 3.83036C6.75893 4.02679 6.83036 4.23214 6.83036 4.44643C6.83036 4.58929 6.75893 4.76786 6.61607 4.98214C6.58036 5.05357 6.49107 5.14286 6.34821 5.25C5.88393 5.51786 5.57143 5.78571 5.41071 6.05357C5.26786 6.28572 5.17857 6.65178 5.14286 7.15179C5.14286 7.22321 5.17857 7.25893 5.25 7.25893H6.29464C6.38393 7.25893 6.42857 7.22321 6.42857 7.15179C6.42857 6.95536 6.44643 6.78572 6.48214 6.64286C6.53571 6.48214 6.64286 6.33036 6.80357 6.1875L7.17857 5.94643C7.51786 5.69643 7.74107 5.49107 7.84821 5.33036Z" fill="white"/>
</svg>
