<svg width="32" height="32" viewBox="0 0 32 32" fill="none" xmlns="http://www.w3.org/2000/svg">
    <circle cx="16" cy="16" r="14" fill="white" stroke="#262626" stroke-width="4"/>
    <path d="M18.6315 21.8459C16.2183 22.9332 13.3393 22.4054 11.4668 20.5327C9.39811 18.4632 9.04429 15.3195 10.4019 12.8805C10.5468 13.094 10.7885 13.2324 11.0587 13.2324C11.0865 13.2324 11.115 13.231 11.1433 13.2278C11.5814 13.1816 11.8987 12.7889 11.8525 12.3509L11.7001 10.9066C11.7005 10.777 11.6664 10.6487 11.6037 10.5313C11.5996 10.5233 11.5957 10.5156 11.5912 10.5076C11.5736 10.4768 11.5534 10.4474 11.531 10.4187C11.5174 10.4007 11.5035 10.3834 11.4882 10.3665C11.4802 10.3579 11.4745 10.3481 11.4663 10.3399C11.457 10.3305 11.4458 10.3241 11.436 10.3152C11.423 10.3032 11.4123 10.2893 11.3984 10.2781C11.3857 10.2678 11.3713 10.261 11.3581 10.2517C11.3456 10.243 11.3333 10.2348 11.3205 10.227C11.2847 10.2045 11.2481 10.1849 11.2096 10.1685C11.2048 10.1664 11.1998 10.1644 11.195 10.1626C11.0751 10.114 10.9453 10.0914 10.8131 10.1054L9.27736 10.2678C8.83948 10.3141 8.52211 10.707 8.56836 11.145C8.60436 11.4864 8.85246 11.7535 9.16664 11.8328C7.2882 14.9141 7.67756 18.9989 10.339 21.6611C11.8664 23.1889 13.9307 24 16.0188 24C17.1267 24 18.2417 23.7716 19.2865 23.301C19.6881 23.1201 19.867 22.6479 19.6861 22.2461C19.5052 21.8443 19.0331 21.6649 18.6315 21.8459ZM22.8331 20.1665C23.5929 18.9242 24 17.4937 24 16.0005C24 13.8623 23.1677 11.852 21.6561 10.3401C19.3018 7.98496 15.6868 7.33499 12.6617 8.72199C12.2612 8.90568 12.0856 9.37903 12.269 9.77945C12.4526 10.1803 12.9267 10.3558 13.3261 10.1724C15.7481 9.06157 18.6431 9.58232 20.5286 11.4682C21.7388 12.679 22.4052 14.2885 22.4052 16.0007C22.4052 17.1124 22.1225 18.1801 21.5939 19.1243C21.4354 18.8841 21.1544 18.7364 20.8478 18.769C20.4097 18.8153 20.0923 19.2079 20.1386 19.646L20.3008 21.1822C20.3017 21.19 20.3044 21.197 20.3053 21.205C20.3099 21.2367 20.3163 21.2677 20.3245 21.2989C20.3295 21.319 20.3352 21.3386 20.3418 21.3579C20.3507 21.3837 20.3609 21.4088 20.3728 21.4338C20.3835 21.4569 20.3953 21.479 20.4079 21.5006C20.4197 21.5207 20.4318 21.5403 20.4454 21.5594C20.4637 21.5847 20.4835 21.6084 20.5045 21.6314C20.5131 21.641 20.5193 21.6519 20.5286 21.6611C20.5332 21.6658 20.5386 21.6686 20.5432 21.6731C20.5694 21.6982 20.5979 21.7205 20.6275 21.742C20.6391 21.7504 20.6503 21.7602 20.6621 21.7679C20.6999 21.7923 20.74 21.8131 20.7817 21.8308C20.7858 21.8327 20.7895 21.8352 20.7936 21.8368C20.8865 21.8746 20.9877 21.8962 21.0927 21.8962C21.1205 21.8962 21.149 21.8949 21.1772 21.8917L22.7132 21.7294C23.1513 21.6832 23.4687 21.2905 23.4225 20.8525C23.3871 20.5138 23.1443 20.2485 22.8331 20.1665Z" fill="black"/>
</svg>
