<svg width="12" height="12" viewBox="0 0 12 12" fill="none" xmlns="http://www.w3.org/2000/svg">
    <path fill-rule="evenodd" clip-rule="evenodd" d="M5.1635 0C2.31774 0 0 2.31772 0 5.16351C0 8.00927 2.31773 10.327 5.1635 10.327C6.35392 10.327 7.45042 9.92258 8.32484 9.24257L10.8925 11.8102C11.1455 12.0633 11.5571 12.0633 11.8102 11.8102C12.0633 11.5571 12.0633 11.1508 11.8102 10.8977L9.24251 8.33001C9.92175 7.45535 10.327 6.35292 10.327 5.16351C10.327 2.31772 8.00926 0 5.1635 0ZM1.29612 5.16351C1.29612 3.02167 3.02168 1.29612 5.1635 1.29612C7.30532 1.29612 9.03089 3.02167 9.03089 5.16351C9.03089 7.30533 7.30532 9.03088 5.1635 9.03088C3.02168 9.03088 1.29612 7.30533 1.29612 5.16351Z" fill="black"/>
</svg>
