<svg width="16" height="16" viewBox="0 0 16 16" fill="none" xmlns="http://www.w3.org/2000/svg">
    <path d="M6.66913 0.315538L6.30085 1.88917C5.84996 2.01893 5.41478 2.19686 5.00303 2.41979L3.59374 1.58113C3.52026 1.53039 3.43102 1.50681 3.34168 1.51451C3.25234 1.52221 3.1686 1.56071 3.10516 1.62325L1.62361 3.0857C1.55952 3.14884 1.52033 3.23245 1.51307 3.32153C1.5058 3.4106 1.53095 3.49932 1.58399 3.57176L2.44619 4.93436C2.21694 5.34338 2.03449 5.77627 1.90218 6.22506L0.315525 6.61209C0.227179 6.62737 0.14712 6.67289 0.0894154 6.74063C0.0317106 6.80838 5.12215e-05 6.89402 2.91192e-09 6.98251L2.91192e-09 9.05051C-1.11743e-05 9.13976 0.0321551 9.22611 0.0907487 9.29412C0.149342 9.36213 0.230543 9.40736 0.319836 9.42174L1.89274 9.78142C2.0233 10.2305 2.20382 10.664 2.431 11.0739L1.58091 12.4309C1.52852 12.5034 1.50389 12.5919 1.51141 12.6806C1.51893 12.7694 1.5581 12.8526 1.62197 12.9155L3.10393 14.3782C3.16722 14.4407 3.25087 14.4793 3.34013 14.487C3.42939 14.4947 3.51854 14.4711 3.59189 14.4203L4.98065 13.6009C5.39868 13.8287 5.84104 14.0101 6.29962 14.1416L6.66913 15.6857C6.684 15.7735 6.72997 15.8533 6.79887 15.9109C6.86778 15.9684 6.95514 16 7.04542 16H9.1418C9.23135 16 9.31804 15.9689 9.38668 15.9122C9.45533 15.8554 9.50156 15.7767 9.51727 15.6897L9.91142 14.1457C10.3701 14.0143 10.8125 13.833 11.2304 13.6049L12.6001 14.4401C12.6736 14.4917 12.7633 14.516 12.8532 14.5086C12.9431 14.5012 13.0275 14.4626 13.0913 14.3996L14.5745 12.939C14.6379 12.8765 14.6769 12.7939 14.6848 12.7058C14.6926 12.6177 14.6686 12.5296 14.6172 12.4572L13.7819 11.0845C14.0108 10.6735 14.1928 10.2388 14.3247 9.78831L15.682 9.42133C15.771 9.40681 15.8519 9.36154 15.9101 9.2936C15.9684 9.22566 16.0002 9.13949 16 9.05051V6.98251C16 6.8942 15.9685 6.80871 15.911 6.74105C15.8535 6.67338 15.7736 6.62787 15.6855 6.61249L14.3171 6.21959C14.1836 5.771 14.0001 5.33839 13.77 4.9297L14.6166 3.54381C14.6683 3.47144 14.6923 3.38338 14.6846 3.29519C14.6769 3.20699 14.6378 3.12433 14.5743 3.0618L13.0911 1.59976C13.027 1.53664 12.9423 1.49805 12.852 1.49089C12.7618 1.48373 12.6719 1.50846 12.5984 1.56067L11.2127 2.41716C10.8008 2.1941 10.3651 2.01662 9.91368 1.88795L9.51768 0.311084C9.50222 0.223927 9.45608 0.144946 9.3874 0.0880432C9.31872 0.0311413 9.2319 -3.62396e-05 9.14221 1.90735e-06H7.04542C6.95496 -0.000188828 6.86739 0.0314302 6.79843 0.0891838C6.72947 0.146937 6.68363 0.227045 6.66913 0.315133V0.315538ZM10.7777 8C10.7777 8.52073 10.6212 9.02976 10.328 9.46273C10.0347 9.8957 9.61793 10.2332 9.13028 10.4324C8.64264 10.6317 8.10605 10.6838 7.58837 10.5823C7.07068 10.4807 6.59516 10.2299 6.22194 9.8617C5.84871 9.49349 5.59454 9.02436 5.49157 8.51364C5.38859 8.00292 5.44144 7.47354 5.64343 6.99245C5.84542 6.51136 6.18748 6.10017 6.62635 5.81087C7.06521 5.52157 7.58118 5.36716 8.10901 5.36716C8.8168 5.36716 9.49559 5.64454 9.99608 6.1383C10.4966 6.63205 10.7777 7.30173 10.7777 8Z" fill="white"/>
</svg>
