<svg width="15" height="17" viewBox="0 0 15 17" fill="none" xmlns="http://www.w3.org/2000/svg">
    <path fill-rule="evenodd" clip-rule="evenodd" d="M4.20223 8.84836C3.91648 8.84836 3.63073 8.73069 3.41221 8.51218L0.336178 5.41934C0.117662 5.21763 0 4.93188 0 4.62932C0 4.34357 0.117662 4.05782 0.336178 3.8393L3.3954 0.74646C3.84924 0.309429 4.55522 0.29262 4.99225 0.74646C5.42928 1.2003 5.42928 1.90628 4.99225 2.34331L3.83243 3.50312H13.2286C13.8505 3.50312 14.3548 4.00739 14.3548 4.62932C14.3548 5.25125 13.8505 5.75552 13.2286 5.75552H3.83243L4.99225 6.91533C5.42928 7.35236 5.42928 8.07515 4.99225 8.51218C4.77373 8.73069 4.48798 8.84836 4.20223 8.84836ZM9.34576 8.31046C9.7996 7.87343 10.5056 7.87343 10.9426 8.31046L14.0186 11.3865C14.4557 11.8403 14.4557 12.5463 14.0186 12.9833L10.9426 16.0762C10.7241 16.2947 10.4383 16.4124 10.1526 16.4124C9.86683 16.4124 9.58108 16.2947 9.36257 16.0762C8.92553 15.6391 8.92553 14.9164 9.36257 14.4793L10.5224 13.3195H1.1262C0.504267 13.3195 0 12.8152 0 12.1933C0 11.5714 0.504267 11.0671 1.1262 11.0671H10.5056L9.34576 9.9073C8.90872 9.45346 8.89192 8.74749 9.34576 8.31046Z" fill="white"/>
</svg>
