<svg width="14" height="12" viewBox="0 0 14 12" fill="none" xmlns="http://www.w3.org/2000/svg">
    <path fill-rule="evenodd" clip-rule="evenodd" d="M14 1.37546V4.65329C13.9294 4.64193 13.8581 4.63123 13.7842 4.63123H9.6604C8.92806 4.63123 8.33377 5.24373 8.33377 6C8.33377 6.75627 8.92806 7.36877 9.6604 7.36877H13.7842C13.8581 7.36877 13.93 7.35874 14 7.34671V10.6245C14 11.3848 13.4031 12 12.6662 12H1.33377C0.596889 12 0 11.3848 0 10.6245V1.37546C0 0.616516 0.596889 0 1.33377 0H12.6662C13.4031 0 14 0.616516 14 1.37546ZM10.7777 6.00003C10.7777 6.39554 10.4669 6.71617 10.0836 6.71617C9.70026 6.71617 9.3895 6.39554 9.3895 6.00003C9.3895 5.60451 9.70026 5.28388 10.0836 5.28388C10.4669 5.28388 10.7777 5.60451 10.7777 6.00003Z" fill="black"/>
</svg>
